<svg width="1160" height="665" viewBox="0 0 1160 665" fill="none" xmlns="http://www.w3.org/2000/svg">
<path d="M258 90.2427H519.188C543.937 90.2427 564 70.1798 564 45.431C564 20.6821 543.937 0.619247 519.188 0.619247H322.017C286.661 0.619247 258 29.2805 258 64.636V90.2427Z" fill="#51DC8F"/>
<path d="M89.8117 664.812L89.8117 403.623C89.8117 378.875 69.7488 358.812 45 358.812C20.2512 358.812 0.188278 378.875 0.188278 403.623L0.188278 600.795C0.188278 636.15 28.8496 664.812 64.205 664.812H89.8117Z" fill="#2FB8E3"/>
<path d="M1070.19 664.812V403.623C1070.19 378.875 1090.25 358.812 1115 358.812C1139.75 358.812 1159.81 378.875 1159.81 403.623V600.795C1159.81 636.15 1131.15 664.812 1095.79 664.812H1070.19Z" fill="#FFA318"/>
<path d="M578 90.2427H839.188C863.937 90.2427 884 70.1798 884 45.431C884 20.6821 863.937 0.619247 839.188 0.619247H642.017C606.661 0.619247 578 29.2805 578 64.636V90.2427Z" fill="#C37CF8"/>
<rect x="344" y="1" width="18" height="90" fill="white"/>
<rect x="674" width="18" height="90" fill="white"/>
</svg>
