<svg width="1141" height="609" viewBox="0 0 1141 609" fill="none" xmlns="http://www.w3.org/2000/svg">
<circle cx="65" cy="544" r="65" fill="#816EF4"/>
<circle cx="1110.5" cy="277.5" r="14.5" fill="#48E587"/>
<path d="M533.135 9.26475C534.018 8.14072 535.433 7.57288 536.848 7.77511L552.074 9.95183C553.489 10.1541 554.688 11.0957 555.22 12.4219L560.948 26.6967C561.48 28.023 561.265 29.5324 560.382 30.6565L550.884 42.7546C550.001 43.8786 548.586 44.4464 547.172 44.2442L531.945 42.0675C530.531 41.8653 529.331 40.9237 528.799 39.5974L523.071 25.3226C522.539 23.9963 522.754 22.4869 523.637 21.3628L533.135 9.26475Z" fill="#806DF5"/>
<path d="M56 53.8026C77.3333 47.8026 121.6 53.4026 128 123.803C104 125.803 56 114.603 56 53.8026Z" fill="#FFA318"/>
<path d="M1059.78 112.341C1057.31 90.3173 1070.01 47.5427 1140.52 52.6328C1138.6 76.6397 1119.78 122.191 1059.78 112.341Z" fill="#2FB8E3"/>
</svg>
